<?xml version="1.0" standalone="no"?>
<!DOCTYPE svg PUBLIC "-//W3C//DTD SVG 20010904//EN"
 "http://www.w3.org/TR/2001/REC-SVG-20010904/DTD/svg10.dtd">
<svg version="1.0" xmlns="http://www.w3.org/2000/svg"
 width="1097.000000pt" height="1099.000000pt" viewBox="0 0 1097.000000 1099.000000"
 preserveAspectRatio="xMidYMid meet">

<g transform="translate(0.000000,1099.000000) scale(0.100000,-0.100000)"
fill="#000000" stroke="none">
<path d="M4850 6790 l0 -120 555 0 555 0 0 120 0 120 -555 0 -555 0 0 -120z"/>
<path d="M4850 6548 c0 -13 11 -53 24 -89 58 -165 195 -296 365 -349 78 -25
230 -27 316 -5 121 32 245 120 319 228 40 58 86 172 86 212 l0 25 -555 0 -555
0 0 -22z"/>
<path d="M3890 5444 c0 -5 -6 -48 -14 -96 -11 -74 -11 -88 2 -93 21 -8 20 -8
33 35 7 23 27 54 46 70 29 26 42 30 93 30 l60 0 0 -276 c0 -158 -4 -283 -10
-293 -5 -10 -23 -21 -40 -24 -18 -4 -30 -13 -30 -22 0 -13 22 -15 150 -15 128
0 150 2 150 15 0 9 -12 18 -30 22 -17 3 -35 14 -40 24 -6 10 -10 135 -10 293
l0 276 59 0 c50 0 65 -4 91 -26 17 -15 38 -44 47 -65 9 -24 22 -39 32 -39 17
0 17 6 4 92 -7 50 -15 93 -17 96 -2 2 -31 -2 -63 -8 -63 -13 -434 -8 -485 5
-16 4 -28 3 -28 -1z"/>
<path d="M5341 5440 c-49 -12 -113 -60 -139 -105 -17 -31 -22 -51 -19 -87 6
-69 42 -115 145 -186 115 -79 152 -120 152 -171 0 -73 -62 -115 -135 -91 -41
14 -114 93 -122 132 -5 25 -30 38 -44 23 -9 -9 12 -160 24 -172 17 -17 152
-36 213 -30 121 12 197 87 196 193 -1 84 -31 125 -163 217 -94 65 -129 108
-129 157 0 55 27 80 84 80 54 0 87 -28 122 -105 44 -96 66 -59 48 78 -6 45 -7
46 -53 56 -76 16 -144 20 -180 11z"/>
<path d="M5696 5438 c-3 -7 -9 -49 -15 -92 -9 -62 -9 -81 1 -87 17 -11 26 -3
33 31 4 17 21 46 40 65 30 33 37 35 94 35 l61 0 -2 -292 -3 -293 -30 -5 c-18
-3 -31 -12 -33 -23 -3 -16 9 -17 143 -17 134 0 146 1 143 17 -2 11 -15 20 -33
23 l-30 5 -3 293 -2 292 61 0 c57 0 64 -2 94 -35 19 -19 36 -48 40 -65 7 -34
16 -42 33 -31 9 6 9 27 -1 97 l-13 89 -39 -5 c-64 -8 -457 -6 -498 3 -27 6
-38 5 -41 -5z"/>
<path d="M4777 5423 c-8 -10 -65 -133 -126 -273 -141 -325 -139 -321 -183
-345 -67 -35 -50 -45 77 -45 94 0 115 3 115 15 0 8 -17 19 -41 25 -39 11 -41
13 -36 43 3 18 16 58 30 90 l26 57 108 0 108 0 33 -81 c36 -89 34 -103 -19
-114 -16 -4 -29 -13 -29 -21 0 -11 27 -14 150 -14 119 0 150 3 150 13 0 8 -17
21 -37 29 -38 15 -39 16 -142 274 -161 399 -151 382 -184 347z m12 -276 c18
-43 35 -85 38 -93 4 -11 -11 -14 -81 -14 -47 0 -86 3 -86 6 0 20 84 194 90
187 4 -4 22 -43 39 -86z"/>
<path d="M6310 5418 c0 -10 11 -19 30 -23 35 -8 34 -6 134 -190 l76 -140 0
-121 c0 -130 -2 -136 -52 -148 -16 -3 -28 -13 -28 -21 0 -13 24 -15 150 -15
128 0 150 2 150 15 0 9 -13 18 -31 22 -41 8 -49 33 -49 158 l0 103 81 133 c45
74 90 148 101 166 14 23 30 34 54 39 22 4 34 12 34 23 0 14 -15 16 -115 16
-103 0 -115 -2 -115 -17 0 -12 8 -18 23 -18 13 0 32 -6 42 -14 18 -13 16 -19
-44 -127 -35 -63 -66 -118 -71 -122 -4 -5 -37 46 -74 113 -70 129 -73 150 -20
150 16 0 24 6 24 18 0 15 -14 17 -150 17 -133 0 -150 -2 -150 -17z"/>
<path d="M3700 4365 c0 -8 5 -15 10 -15 6 0 10 -33 10 -80 0 -47 -4 -80 -10
-80 -5 0 -10 -7 -10 -15 0 -10 11 -15 35 -15 24 0 35 5 35 15 0 8 -4 15 -10
15 -5 0 -10 16 -10 35 0 30 3 35 24 35 30 0 42 -15 51 -62 6 -31 11 -38 31
-38 26 0 33 24 10 33 -8 3 -17 19 -21 36 -4 17 -11 31 -16 31 -5 0 0 9 11 20
27 27 26 65 -2 84 -31 22 -138 22 -138 1z m114 -21 c9 -3 16 -16 16 -29 0 -24
-17 -35 -56 -35 -21 0 -24 5 -24 35 0 30 3 35 24 35 13 0 31 -3 40 -6z"/>
<path d="M4060 4365 c0 -8 5 -15 10 -15 6 0 10 -33 10 -80 0 -47 -4 -80 -10
-80 -5 0 -10 -7 -10 -15 0 -12 16 -15 80 -15 l80 0 0 30 c0 20 -5 30 -15 30
-8 0 -15 -7 -15 -15 0 -11 -11 -15 -40 -15 -38 0 -40 2 -40 30 0 28 3 30 35
30 24 0 35 5 35 15 0 10 -11 15 -35 15 -33 0 -35 2 -35 35 0 34 1 35 40 35 29
0 40 -4 40 -15 0 -8 7 -15 15 -15 10 0 15 10 15 30 l0 30 -80 0 c-64 0 -80 -3
-80 -15z"/>
<path d="M4422 4364 c-44 -30 -16 -104 39 -104 9 0 27 -8 40 -19 20 -16 21
-21 10 -35 -19 -23 -68 -20 -83 4 -15 23 -38 27 -38 6 0 -22 49 -56 79 -56 40
0 71 26 71 59 0 33 -13 46 -66 65 -31 10 -39 18 -39 37 0 20 6 25 33 27 22 2
34 -2 38 -12 7 -19 44 -21 44 -3 0 17 -52 47 -82 47 -13 0 -34 -7 -46 -16z"/>
<path d="M4710 4349 c0 -20 4 -29 13 -26 6 2 11 10 10 16 -2 6 10 11 27 11
l30 0 0 -80 c0 -47 -4 -80 -10 -80 -5 0 -10 -7 -10 -15 0 -10 11 -15 35 -15
24 0 35 5 35 14 0 8 -4 16 -9 18 -8 2 -15 94 -12 146 1 18 61 16 61 -3 0 -8 5
-15 10 -15 6 0 10 14 10 30 l0 30 -95 0 -95 0 0 -31z"/>
<path d="M5108 4351 c-29 -26 -33 -35 -33 -81 0 -46 4 -55 33 -81 72 -64 172
-17 172 81 0 98 -100 145 -172 81z m119 -23 c48 -45 16 -138 -49 -138 -18 0
-39 10 -55 26 -21 21 -24 32 -19 62 10 67 76 94 123 50z"/>
<path d="M5460 4365 c0 -8 5 -15 10 -15 6 0 10 -33 10 -80 0 -47 -4 -80 -10
-80 -5 0 -10 -7 -10 -15 0 -10 11 -15 35 -15 24 0 35 5 35 15 0 8 -4 15 -10
15 -5 0 -10 16 -10 35 0 30 3 35 24 35 28 0 37 -10 51 -60 7 -25 17 -36 33
-38 15 -2 22 2 22 12 0 9 -4 16 -9 16 -5 0 -15 16 -21 35 -6 19 -16 35 -21 35
-5 0 0 9 11 20 27 27 26 65 -2 84 -31 22 -138 22 -138 1z m125 -50 c0 -27 -3
-30 -37 -33 -38 -3 -38 -3 -38 33 0 36 0 36 38 33 34 -3 37 -6 37 -33z"/>
<path d="M5860 4285 c-19 -52 -38 -95 -42 -95 -5 0 -8 -7 -8 -15 0 -10 11 -15
35 -15 24 0 35 5 35 14 0 8 -5 16 -11 18 -7 2 -9 13 -5 26 6 18 15 22 51 22
47 0 59 -14 49 -56 -6 -22 -3 -24 30 -24 25 0 36 4 36 15 0 8 -6 15 -13 15 -7
0 -26 40 -44 93 -27 78 -35 92 -55 95 -21 3 -27 -6 -58 -93z m73 23 l16 -38
-30 0 c-32 0 -36 11 -19 56 12 31 13 31 33 -18z"/>
<path d="M6170 4365 c0 -8 7 -15 15 -15 12 0 15 -14 15 -70 0 -62 3 -74 25
-95 37 -38 101 -30 125 16 6 11 14 48 16 82 3 34 9 66 15 72 18 18 9 25 -31
25 -29 0 -40 -4 -40 -15 0 -8 7 -15 15 -15 21 0 21 -107 -1 -138 -20 -28 -68
-30 -87 -2 -19 28 -23 140 -4 140 7 0 14 7 14 15 0 11 -11 15 -39 15 -27 0
-38 -4 -38 -15z"/>
<path d="M6550 4366 c0 -9 7 -16 15 -16 12 0 15 -16 15 -80 0 -64 -3 -80 -15
-80 -8 0 -15 -7 -15 -15 0 -11 11 -15 40 -15 29 0 40 4 40 15 0 8 -7 15 -15
15 -12 0 -15 15 -15 72 0 44 4 68 9 63 5 -6 29 -44 53 -85 30 -50 51 -76 66
-78 20 -3 21 1 20 85 -1 48 2 98 6 111 8 20 5 22 -28 22 -25 0 -36 -4 -36 -15
0 -8 7 -15 15 -15 12 0 15 -15 15 -72 0 -84 -3 -83 -63 23 -37 66 -46 74 -74
77 -25 2 -33 -1 -33 -12z"/>
<path d="M6930 4350 c0 -16 5 -30 10 -30 6 0 10 7 10 15 0 10 10 15 30 15 l30
0 0 -80 c0 -64 -3 -80 -15 -80 -8 0 -15 -7 -15 -15 0 -10 10 -15 34 -15 38 0
57 16 32 26 -13 5 -16 23 -16 85 l0 79 30 0 c20 0 30 -5 30 -15 0 -8 7 -15 15
-15 10 0 15 10 15 30 l0 30 -95 0 -95 0 0 -30z"/>
</g>
</svg>
